<svg width="18" height="18" viewBox="0 0 18 18" fill="none" xmlns="http://www.w3.org/2000/svg">
<g opacity="0.5">
<path fill-rule="evenodd" clip-rule="evenodd" d="M8.75018 10.932C9.95516 10.932 10.932 9.95516 10.932 8.75018C10.932 7.54519 9.95516 6.56836 8.75018 6.56836C7.54519 6.56836 6.56836 7.54519 6.56836 8.75018C6.56836 9.95516 7.54519 10.932 8.75018 10.932Z" stroke="#013C61" stroke-width="1.5" stroke-linecap="round" stroke-linejoin="round"/>
<path fill-rule="evenodd" clip-rule="evenodd" d="M14.1318 10.9318C13.9337 11.3806 14.0288 11.9048 14.3718 12.2555L14.4155 12.2991C14.6886 12.5719 14.8421 12.9421 14.8421 13.3282C14.8421 13.7142 14.6886 14.0844 14.4155 14.3573C14.1426 14.6304 13.7724 14.7839 13.3864 14.7839C13.0003 14.7839 12.6301 14.6304 12.3573 14.3573L12.3136 14.3136C11.963 13.9706 11.4388 13.8756 10.99 14.0736C10.5504 14.262 10.2646 14.6935 10.2627 15.1718V15.2955C10.2627 16.0988 9.61151 16.75 8.80818 16.75C8.00486 16.75 7.35364 16.0988 7.35364 15.2955V15.23C7.34211 14.7374 7.03063 14.3019 6.56818 14.1318C6.11939 13.9337 5.59523 14.0288 5.24455 14.3718L5.20091 14.4155C4.92808 14.6886 4.55787 14.8421 4.17182 14.8421C3.78577 14.8421 3.41555 14.6886 3.14273 14.4155C2.8696 14.1426 2.71613 13.7724 2.71613 13.3864C2.71613 13.0003 2.8696 12.6301 3.14273 12.3573L3.18636 12.3136C3.52939 11.963 3.62443 11.4388 3.42636 10.99C3.23795 10.5504 2.80647 10.2646 2.32818 10.2627H2.20455C1.40122 10.2627 0.75 9.61151 0.75 8.80818C0.75 8.00486 1.40122 7.35364 2.20455 7.35364H2.27C2.7626 7.34211 3.1981 7.03063 3.36818 6.56818C3.56625 6.11939 3.47121 5.59523 3.12818 5.24455L3.08455 5.20091C2.81142 4.92808 2.65795 4.55787 2.65795 4.17182C2.65795 3.78577 2.81142 3.41555 3.08455 3.14273C3.35737 2.8696 3.72759 2.71613 4.11364 2.71613C4.49969 2.71613 4.8699 2.8696 5.14273 3.14273L5.18636 3.18636C5.53704 3.52939 6.06121 3.62443 6.51 3.42636H6.56818C7.0078 3.23795 7.29355 2.80647 7.29545 2.32818V2.20455C7.29545 1.40122 7.94668 0.75 8.75 0.75C9.55332 0.75 10.2045 1.40122 10.2045 2.20455V2.27C10.2065 2.74829 10.4922 3.17977 10.9318 3.36818C11.3806 3.56625 11.9048 3.47121 12.2555 3.12818L12.2991 3.08455C12.5719 2.81142 12.9421 2.65795 13.3282 2.65795C13.7142 2.65795 14.0844 2.81142 14.3573 3.08455C14.6304 3.35737 14.7839 3.72759 14.7839 4.11364C14.7839 4.49969 14.6304 4.8699 14.3573 5.14273L14.3136 5.18636C13.9706 5.53704 13.8756 6.06121 14.0736 6.51V6.56818C14.262 7.0078 14.6935 7.29355 15.1718 7.29545H15.2955C16.0988 7.29545 16.75 7.94668 16.75 8.75C16.75 9.55332 16.0988 10.2045 15.2955 10.2045H15.23C14.7517 10.2065 14.3202 10.4922 14.1318 10.9318Z" stroke="#013C61" stroke-width="1.5" stroke-linecap="round" stroke-linejoin="round"/>
</g>
</svg>
